<?xml version="1.0" encoding="UTF-8"?>
<svg xmlns="http://www.w3.org/2000/svg" version="1.1" width="1536" height="1024" style="background: transparent;">

<path d="M0 0 C0.76425293 0.15694336 1.52850586 0.31388672 2.31591797 0.47558594 C22.93049547 4.78251576 43.16244518 12.68764945 62 22 C62.67708008 22.32919434 63.35416016 22.65838867 64.05175781 22.99755859 C87.10793547 34.40101944 108.29410065 50.73535965 129.15332031 65.68164062 C131.85522055 67.61054878 134.57267535 69.51714692 137.28857422 71.42626953 C144.80900642 76.71500793 152.27629336 82.07383818 159.72192383 87.46728516 C165.11001844 91.36734167 170.52757436 95.21880138 176 99 C174.56901057 102.89428466 172.71947099 106.27321212 170.5625 109.8125 C167.81786195 114.4738481 165.59456651 118.84483894 164 124 C163.649375 125.11503906 163.29875 126.23007812 162.9375 127.37890625 C161.94254725 130.58141042 160.96451359 133.78821869 160 137 C157.24678614 135.69302984 154.80366726 134.24417133 152.33984375 132.453125 C151.63867432 131.94531494 150.93750488 131.43750488 150.21508789 130.91430664 C149.46348389 130.36508545 148.71187988 129.81586426 147.9375 129.25 C147.14529053 128.67435303 146.35308105 128.09870605 145.53686523 127.50561523 C137.46156871 121.62884539 129.42340404 115.70145683 121.39111328 109.76611328 C117.43008838 106.84043897 113.46484283 103.92049694 109.5 101 C107.91664621 99.8333611 106.33331288 98.66669442 104.75 97.5 C103.574375 96.63375 103.574375 96.63375 102.375 95.75 C100 94 97.625 92.25 95.25 90.5 C94.4660083 89.92233887 93.6820166 89.34467773 92.87426758 88.74951172 C91.29331017 87.58456151 89.71241808 86.41952266 88.1315918 85.25439453 C84.13744172 82.3107302 80.1421157 79.36868654 76.14453125 76.4296875 C74.5338283 75.24482682 72.92315107 74.0599312 71.3125 72.875 C70.52464111 72.29596924 69.73678223 71.71693848 68.92504883 71.12036133 C65.17799489 68.36164386 61.44449803 65.58808112 57.7421875 62.76953125 C38.03904613 47.77014484 17.60717449 35.81618451 -6 28 C-7.11890625 27.61199219 -8.2378125 27.22398437 -9.390625 26.82421875 C-12.89578022 25.7061951 -16.41083251 24.79474423 -20 24 C-21.22299805 23.72712158 -21.22299805 23.72712158 -22.47070312 23.44873047 C-63.87421475 14.69598668 -109.89387734 18.09416456 -148 37 C-148.62664551 37.30518555 -149.25329102 37.61037109 -149.89892578 37.92480469 C-178.51882953 51.99060918 -203.51059888 75.25328984 -214 106 C-221.45639912 128.36919735 -217.41626451 153.93274954 -207.6953125 174.80078125 C-192.40500944 204.64710727 -163.25449343 223.04158314 -133 235 C-132.33774414 235.26441895 -131.67548828 235.52883789 -130.99316406 235.80126953 C-83.67789985 254.29303086 -22.53185439 249.57223555 23.43188477 229.87768555 C38.82525142 223.08007376 52.50884147 214.97447766 66.18505859 205.1640625 C68 204 68 204 71 203 C74.92656271 204.85565346 78.43888823 207.52346737 82 210 C82.75055664 210.52126465 83.50111328 211.0425293 84.27441406 211.57958984 C86.75398828 213.31213184 89.22265995 215.05906772 91.6875 216.8125 C92.50226807 217.38758301 93.31703613 217.96266602 94.15649414 218.55517578 C95.29139282 219.37284424 95.29139282 219.37284424 96.44921875 220.20703125 C97.13330811 220.6966333 97.81739746 221.18623535 98.5222168 221.69067383 C99.00988525 222.12275146 99.49755371 222.5548291 100 223 C100 223.66 100 224.32 100 225 C98.61743164 226.26171875 98.61743164 226.26171875 96.66015625 227.6875 C95.93594482 228.21625732 95.2117334 228.74501465 94.46557617 229.28979492 C93.67256104 229.8541626 92.8795459 230.41853027 92.0625 231 C91.24563721 231.58305908 90.42877441 232.16611816 89.5871582 232.7668457 C31.713814 273.53427326 -44.70263686 286.3576729 -114 275 C-115.75981201 274.71793701 -115.75981201 274.71793701 -117.55517578 274.43017578 C-159.32419156 267.49900049 -200.57654799 252.12907158 -232 223 C-232.8660083 222.19973389 -232.8660083 222.19973389 -233.74951172 221.38330078 C-248.95524822 207.16255126 -260.29847365 190.89944785 -267.375 171.25 C-267.61379883 170.58959717 -267.85259766 169.92919434 -268.09863281 169.2487793 C-271.57856446 159.02175875 -272.36353005 148.93953153 -272.3125 138.1875 C-272.30686035 136.94572998 -272.3012207 135.70395996 -272.29541016 134.42456055 C-272.18158728 125.85347269 -271.64302841 118.19939495 -269 110 C-268.80664062 109.35627441 -268.61328125 108.71254883 -268.4140625 108.04931641 C-260.24118731 81.02711719 -242.34706729 57.99274844 -220 41 C-219.09121094 40.27554688 -218.18242187 39.55109375 -217.24609375 38.8046875 C-194.66936069 21.17333407 -167.58953359 9.21572417 -140 2 C-138.25783203 1.49533203 -138.25783203 1.49533203 -136.48046875 0.98046875 C-92.61463359 -11.49256425 -44.17163495 -9.34904997 0 0 Z " fill="#1D79CC" transform="translate(649,296)"/>
<path d="M0 0 C3.86545273 0.00850458 7.72941857 -0.02037136 11.59472656 -0.05200195 C33.41775171 -0.11529711 54.53414011 2.23957873 75.50878906 8.38354492 C76.67410156 8.70516602 77.83941406 9.02678711 79.04003906 9.3581543 C86.66816046 11.52116187 93.8793001 14.26011843 101.13378906 17.44604492 C102.62558864 18.07587079 104.11774172 18.70486044 105.61035156 19.33276367 C122.40744456 26.56161555 137.72250144 35.17266448 152.13378906 46.44604492 C153.09671875 47.18467773 154.05964844 47.92331055 155.05175781 48.68432617 C180.17036068 68.51098674 199.6296796 95.45455976 205.13378906 127.44604492 C205.66162154 132.32113591 205.67393397 137.19485922 205.6003418 142.09301758 C205.57109382 144.21017778 205.57986021 146.32485719 205.59277344 148.44213867 C205.58087677 156.79912544 204.65811311 164.43618458 202.13378906 172.44604492 C201.88395264 173.25992676 201.63411621 174.07380859 201.37670898 174.91235352 C189.00140204 213.3945275 159.28411446 240.12872672 124.34399414 258.60229492 C78.50435533 282.0027435 25.61471778 287.16925359 -24.86621094 279.44604492 C-25.72408203 279.31746094 -26.58195313 279.18887695 -27.46582031 279.05639648 C-49.65276704 275.57695911 -71.77995435 268.45780244 -91.86621094 258.44604492 C-92.65801758 258.06287109 -93.44982422 257.67969727 -94.265625 257.28491211 C-112.78397478 248.28823033 -130.013355 236.98441005 -146.30761719 224.41870117 C-150.75160142 220.99242325 -155.31794594 217.73189779 -159.86621094 214.44604492 C-159.57743565 213.09125873 -159.28500377 211.7372519 -158.99121094 210.38354492 C-158.82878906 209.62944336 -158.66636719 208.8753418 -158.49902344 208.09838867 C-158.02759287 206.12245436 -157.47986333 204.16442596 -156.89355469 202.21948242 C-155.90848106 198.60130324 -155.29106076 195.13241859 -154.79589844 191.41870117 C-154.621875 190.13286133 -154.44785156 188.84702148 -154.26855469 187.5222168 C-154.09266062 186.184341 -153.91688076 184.84645018 -153.74121094 183.50854492 C-153.55809085 182.14324693 -153.37450123 180.77801183 -153.19042969 179.4128418 C-152.7444094 176.09116439 -152.30315599 172.76892621 -151.86621094 169.44604492 C-148.7578035 170.59515573 -146.20969373 171.72473464 -143.65917969 173.84448242 C-143.08127686 174.31748779 -142.50337402 174.79049316 -141.90795898 175.27783203 C-141.29605713 175.78709229 -140.68415527 176.29635254 -140.05371094 176.82104492 C-126.42742707 187.93196548 -112.21124932 198.28538857 -97.86621094 208.44604492 C-97.23924316 208.89189941 -96.61227539 209.33775391 -95.96630859 209.79711914 C-68.95463241 228.86289112 -38.59991427 242.33944025 -5.86621094 247.44604492 C-4.7962085 247.6173291 -3.72620605 247.78861328 -2.6237793 247.96508789 C16.81339913 250.45298611 38.24981594 249.60353938 57.13378906 244.44604492 C58.18373047 244.1731665 58.18373047 244.1731665 59.25488281 243.89477539 C81.70551354 237.95851457 102.03264654 227.08788995 119.13378906 211.44604492 C119.95621094 210.70612305 120.77863281 209.96620117 121.62597656 209.20385742 C136.81141415 194.8591361 149.29708537 172.18444727 150.24243164 151.01293945 C150.91802958 119.55732194 142.74545377 95.97790376 120.98974609 72.96948242 C100.65839427 52.05493653 73.88815986 40.13475575 46.13378906 32.44604492 C45.17988281 32.17147461 44.22597656 31.8969043 43.24316406 31.61401367 C29.66568431 27.92921636 15.98760018 27.11000961 1.99755859 27.18530273 C-0.36484416 27.19603871 -2.72648694 27.18532154 -5.08886719 27.17260742 C-19.36357108 27.15954053 -33.08187961 28.53197553 -46.86621094 32.44604492 C-48.13722656 32.7837793 -49.40824219 33.12151367 -50.71777344 33.46948242 C-73.76314081 39.74051536 -93.73368446 50.30458065 -112.57324219 64.87963867 C-113.15283691 65.32549316 -113.73243164 65.77134766 -114.32958984 66.23071289 C-115.59055813 67.22802781 -116.80435179 68.28471198 -118.00292969 69.35620117 C-119.86621094 70.44604492 -119.86621094 70.44604492 -122.13183594 70.48901367 C-126.17085015 68.94841825 -129.24019129 66.41918505 -132.61621094 63.75854492 C-134.03655482 62.66150762 -135.45842086 61.56643813 -136.88183594 60.47338867 C-137.90567383 59.68617432 -137.90567383 59.68617432 -138.95019531 58.88305664 C-142.0088574 56.58906007 -145.20605958 54.53531721 -148.45996094 52.53198242 C-148.92402344 52.17362305 -149.38808594 51.81526367 -149.86621094 51.44604492 C-149.86621094 50.78604492 -149.86621094 50.12604492 -149.86621094 49.44604492 C-148.36010742 48.16845703 -148.36010742 48.16845703 -146.23730469 46.72338867 C-145.45774414 46.18955566 -144.67818359 45.65572266 -143.875 45.10571289 C-143.02647461 44.53739746 -142.17794922 43.96908203 -141.30371094 43.38354492 C-140.43327148 42.79718262 -139.56283203 42.21082031 -138.66601562 41.60668945 C-136.07470808 39.87297452 -133.47382389 38.15511984 -130.86621094 36.44604492 C-130.20572754 36.01275879 -129.54524414 35.57947266 -128.86474609 35.13305664 C-107.87342937 21.54505522 -84.68771297 12.20299992 -60.49121094 6.19604492 C-59.56066895 5.96167725 -58.63012695 5.72730957 -57.67138672 5.48583984 C-38.56588591 0.98938394 -19.57285521 -0.06537442 0 0 Z " fill="#A6CE2D" transform="translate(953.8662109375,289.553955078125)"/>
<path d="M0 0 C3.97508063 2.96992393 7.97418884 5.90703219 11.97167969 8.84667969 C13.55513583 10.01317967 15.13846901 11.17984658 16.72167969 12.34667969 C17.89730469 13.21292969 17.89730469 13.21292969 19.09667969 14.09667969 C21.47167969 15.84667969 23.84667969 17.59667969 26.22167969 19.34667969 C27.39766724 20.21317139 27.39766724 20.21317139 28.59741211 21.09716797 C30.17836951 22.26211818 31.7592616 23.42715703 33.34008789 24.59228516 C37.33423797 27.53594949 41.32956399 30.47799314 45.32714844 33.41699219 C53.38554013 39.3438093 61.42401275 45.29422322 69.41601562 51.31030273 C73.75404824 54.57136973 78.11521609 57.79910986 82.49194336 61.00805664 C84.89227385 62.77175771 87.28354871 64.54726581 89.67480469 66.32324219 C92.89720134 68.71034929 96.15796423 71.02641636 99.45605469 73.30761719 C101.02397703 74.42450432 102.59169374 75.54168018 104.15917969 76.65917969 C104.89644287 77.1495874 105.63370605 77.63999512 106.39331055 78.14526367 C111.14455695 81.59213418 111.14455695 81.59213418 111.98095703 84.79980469 C112.04495476 87.21968451 111.81314649 89.44955074 111.47167969 91.84667969 C111.35977295 92.79873291 111.24786621 93.75078613 111.13256836 94.73168945 C110.72448781 97.90735764 110.2331727 101.06111095 109.72167969 104.22167969 C109.56441406 105.28128906 109.40714844 106.34089844 109.24511719 107.43261719 C108.10259754 114.60412516 106.20017564 121.11917955 103.47167969 127.84667969 C99.80015649 126.09165135 96.72237253 123.85264519 93.53417969 121.34667969 C92.35844889 120.43255229 91.18266632 119.51849149 90.00683594 118.60449219 C89.41273926 118.14075195 88.81864258 117.67701172 88.20654297 117.19921875 C83.31671808 113.38699952 78.39165384 109.61987468 73.47167969 105.84667969 C72.70823242 105.26112305 71.94478516 104.67556641 71.15820312 104.07226562 C61.05418234 96.32991701 50.9064022 88.65872701 40.63720703 81.13671875 C33.79647122 76.11440638 27.05223443 70.97091885 20.31420898 65.81201172 C14.5178704 61.38244624 8.67214042 57.02852411 2.78417969 52.72167969 C-3.40088396 48.19552384 -9.49730824 43.5761103 -15.52832031 38.84667969 C-24.04999511 32.16529605 -32.73576997 25.72660513 -41.48535156 19.34765625 C-43.25299609 18.0489614 -45.0043469 16.73317714 -46.74707031 15.40136719 C-63.93546025 2.41129089 -83.88354545 -3.57505002 -105.27832031 -3.46582031 C-106.99184692 -3.45844849 -106.99184692 -3.45844849 -108.73999023 -3.45092773 C-130.09664124 -3.15542309 -150.53340239 3.49301945 -166.27832031 18.40527344 C-170.07110365 22.52070674 -172.87704961 26.93442687 -175.52832031 31.84667969 C-176.03621094 32.72582031 -176.54410156 33.60496094 -177.06738281 34.51074219 C-182.09416787 44.48006451 -182.06330361 56.42902299 -179.82910156 67.22558594 C-178.91993845 69.92238622 -177.85612613 72.33170792 -176.52832031 74.84667969 C-175.89216797 76.11511719 -175.89216797 76.11511719 -175.24316406 77.40917969 C-167.32670955 91.87490158 -152.90591996 101.69336701 -137.3359375 106.52734375 C-134.86564652 107.2473029 -132.38889676 107.9314508 -129.90332031 108.59667969 C-129.11570312 108.80760254 -128.32808594 109.01852539 -127.51660156 109.23583984 C-95.16265243 117.46611196 -62.13543971 109.08743414 -33.68017578 93.18652344 C-30.70094164 91.33151584 -28.02588932 89.1572188 -25.35473633 86.88574219 C-23.52832031 85.84667969 -23.52832031 85.84667969 -21.49633789 86.03662109 C-18.10485431 87.43259461 -15.44917308 89.89929202 -12.65332031 92.22167969 C-11.32181367 93.30826036 -9.98976848 94.39418138 -8.65722656 95.47949219 C-7.97805176 96.03540039 -7.29887695 96.59130859 -6.59912109 97.1640625 C-3.29487815 99.84890598 0.05599956 102.47339625 3.40917969 105.09667969 C4.01810059 105.57411621 4.62702148 106.05155273 5.25439453 106.54345703 C6.65962622 107.64520762 8.06556624 108.74605468 9.47167969 109.84667969 C5.27687826 114.51136722 0.53752007 117.53993241 -4.84082031 120.72167969 C-5.73164307 121.24979248 -6.62246582 121.77790527 -7.5402832 122.32202148 C-15.30490202 126.84692722 -23.12102196 130.68270438 -31.52832031 133.84667969 C-32.70467041 134.29285645 -32.70467041 134.29285645 -33.90478516 134.74804688 C-47.18422615 139.69199748 -60.50656949 142.8490387 -74.52832031 144.84667969 C-75.75663574 145.02247559 -76.98495117 145.19827148 -78.25048828 145.37939453 C-82.77939474 145.93529968 -87.27015475 146.02611324 -91.82910156 146.04980469 C-92.70495407 146.05550476 -93.58080658 146.06120483 -94.48320007 146.06707764 C-96.33294488 146.0764784 -98.18270606 146.0830419 -100.0324707 146.08691406 C-102.7950773 146.09652062 -105.5569065 146.12754976 -108.31933594 146.15917969 C-141.3528677 146.35655147 -175.19328074 136.77850499 -200.52832031 114.84667969 C-201.3365625 114.19441406 -202.14480469 113.54214844 -202.97753906 112.87011719 C-218.33646298 99.99466135 -228.41175812 81.65482978 -231.52832031 61.84667969 C-232.87797959 38.61696708 -225.68658832 18.47227129 -210.34814453 0.89086914 C-187.47435434 -24.43924157 -153.39172988 -37.76768217 -119.74707031 -40.03222656 C-73.33032389 -41.77848765 -36.78401147 -27.54832401 0 0 Z " fill="#1C7ACE" transform="translate(690.5283203125,375.1533203125)"/>
<path d="M0 0 C0.8259819 -0.0096579 1.65196381 -0.0193158 2.50297546 -0.02926636 C5.16609188 -0.0540375 7.82896841 -0.066651 10.4921875 -0.07421875 C11.84744034 -0.07864487 11.84744034 -0.07864487 13.23007202 -0.0831604 C26.39134775 -0.09297689 38.65101014 0.59368648 51.3671875 4.23828125 C52.43453125 4.48835938 53.501875 4.7384375 54.6015625 4.99609375 C61.2635269 6.59717359 67.22715262 9.23856955 73.3671875 12.23828125 C74.61944666 12.82235484 75.87207293 13.40564179 77.125 13.98828125 C101.83502907 25.67354533 121.92894565 43.51645981 132.3671875 69.23828125 C135.98284479 79.49864971 137.11616835 89.3483374 136.3671875 100.23828125 C136.29628906 101.3159375 136.22539063 102.39359375 136.15234375 103.50390625 C134.18667616 121.43786226 123.76015329 137.63455074 111.3671875 150.23828125 C110.69171875 150.92664063 110.01625 151.615 109.3203125 152.32421875 C100.08983262 161.10358495 88.16481234 167.59712485 76.3671875 172.23828125 C74.72943359 172.88410156 74.72943359 172.88410156 73.05859375 173.54296875 C38.60294758 186.07903808 1.08101281 181.41396043 -31.79077148 166.61352539 C-47.43272506 159.24849527 -61.73277396 149.44117051 -75.6328125 139.23828125 C-76.79925293 138.38266602 -76.79925293 138.38266602 -77.98925781 137.50976562 C-81.24725651 135.11629408 -84.50226872 132.71888667 -87.75146484 130.31347656 C-92.95584849 126.46114419 -98.20139762 122.67548571 -103.48583984 118.93408203 C-108.03405593 115.69941096 -112.49296304 112.35329069 -116.9453125 108.98828125 C-122.3865432 104.87632027 -127.86705105 100.88993017 -133.6328125 97.23828125 C-130.69770795 86.2628637 -127.0658712 76.63810599 -121.5078125 66.73828125 C-121.15879883 66.11373047 -120.80978516 65.48917969 -120.45019531 64.84570312 C-117.87381978 60.35878489 -117.87381978 60.35878489 -115.6328125 59.23828125 C-98.27092874 71.43555402 -81.08846112 83.86257965 -64.02392578 96.47216797 C-61.64342757 98.23044079 -59.26148353 99.98673317 -56.87890625 101.7421875 C-56.09531738 102.31960693 -55.31172852 102.89702637 -54.50439453 103.49194336 C-52.92658243 104.65378091 -51.34813406 105.81475489 -49.76904297 106.97485352 C-45.73087273 109.94370428 -41.70767977 112.9299509 -37.70703125 115.94921875 C-14.13793945 133.67704026 8.04238998 144.81588282 38.3046875 141.67578125 C51.95218119 139.49403906 66.76480024 132.46855979 75.6640625 121.71875 C83.98795601 109.59564821 86.6859599 97.76231447 85.3671875 83.23828125 C84.49675698 79.58152697 83.1591233 76.52935289 81.3671875 73.23828125 C80.99335937 72.47257812 80.61953125 71.706875 80.234375 70.91796875 C72.89958684 56.58841572 58.90203486 46.20140663 43.80859375 41.015625 C20.24831231 34.05973239 -6.42500642 34.5041887 -28.3359375 46.2421875 C-35.81346223 50.76945662 -42.53703445 55.95511039 -48.6328125 62.23828125 C-52.25220245 60.93428311 -55.01928279 59.38150041 -58.0703125 57.05078125 C-64.03818944 52.60784524 -70.16691995 48.41967836 -76.3203125 44.23828125 C-77.32570068 43.55483643 -78.33108887 42.8713916 -79.36694336 42.16723633 C-81.78798326 40.52289383 -84.20989266 38.87985192 -86.6328125 37.23828125 C-80.16690103 23.27205766 -55.54131835 13.2895163 -41.9453125 8.23828125 C-33.03779623 5.07489916 -23.91028316 2.98661919 -14.6328125 1.23828125 C-13.74134521 1.06321045 -12.84987793 0.88813965 -11.93139648 0.70776367 C-7.93465014 0.13891287 -4.03199658 0.03906656 0 0 Z " fill="#ADD02C" transform="translate(941.6328125,336.76171875)"/>
<path d="M0 0 C5.85457559 0.00754196 11.70908345 0.00481147 17.56365657 -0.00360447 C70.93508306 -0.0781804 124.14374713 0.93761835 177.42815852 4.24871486 C181.21323266 4.48221108 184.99882478 4.70703918 188.78435969 4.93291897 C196.03289277 5.366555 203.28087627 5.80853533 210.52850032 6.25713772 C210.85850032 6.91713772 211.18850032 7.57713772 211.52850032 8.25713772 C202.73756394 8.28067043 193.94663896 8.29825535 185.15567756 8.30894989 C181.07038618 8.31409169 176.98511688 8.32102331 172.89983821 8.33257717 C142.1104823 8.41734791 142.1104823 8.41734791 127.82537532 7.76495022 C107.58585277 6.86592299 87.31234477 7.06083441 67.05737376 7.06845897 C63.56218313 7.06964752 60.06699548 7.06910276 56.57180476 7.06844753 C27.48361745 7.0696172 -1.5845908 7.26005378 -30.65899968 8.19463772 C-31.33929612 8.21645233 -32.01959256 8.23826694 -32.72050405 8.2607426 C-41.63934354 8.54971912 -50.55560124 8.88940073 -59.47149968 9.25713772 C-60.52768498 9.29912288 -61.58387029 9.34110805 -62.6720612 9.3843655 C-65.67701521 9.50439834 -68.68169913 9.62960917 -71.68634343 9.75713772 C-72.97740247 9.80915592 -72.97740247 9.80915592 -74.2945435 9.862225 C-82.08385606 10.20949274 -89.75968236 11.11914748 -97.47149968 12.25713772 C-84.77522848 15.27030807 -71.71771811 15.42680822 -58.72540593 15.80791897 C-57.66446815 15.83914065 -57.66446815 15.83914065 -56.58209729 15.87099308 C-34.19688544 16.50995406 -11.80133802 16.4537367 10.59100032 16.44463772 C12.90008235 16.4446939 15.20916438 16.44475497 17.51824641 16.44482082 C53.85821073 16.43712067 90.12255418 15.94260795 126.43102717 14.38671535 C129.34494494 14.26481645 132.25899895 14.15307203 135.17351985 14.0466885 C161.52778314 13.0837194 187.74536767 10.814554 214.00115657 8.37823147 C215.5936523 8.2314294 215.5936523 8.2314294 217.21831965 8.08166164 C218.21150203 7.98802334 219.2046844 7.89438503 220.22796321 7.7979092 C221.08660472 7.71733776 221.94524623 7.63676632 222.82990718 7.55375332 C224.87708041 7.32873847 226.91844538 7.05009104 228.95547175 6.74665493 C232.32076936 6.28559757 235.60560967 6.0344359 238.99749446 5.88409084 C240.24152537 5.82733181 241.48555629 5.77057277 242.76728511 5.71209377 C244.11607057 5.65407477 245.46486121 5.59617625 246.81365657 5.53838772 C248.23395078 5.47520336 249.65423358 5.41176201 251.07450557 5.3480801 C254.0609531 5.2148949 257.0474891 5.08400129 260.03411555 4.95489162 C263.7629331 4.79363954 267.49154383 4.62812547 271.22009826 4.46091121 C274.1661908 4.32909276 277.11236204 4.19910209 280.05855823 4.06962246 C282.07038115 3.98109241 284.08216452 3.89166506 286.09394526 3.80218166 C289.67792285 3.64766714 293.2619962 3.50098982 296.84658885 3.36171573 C298.77786144 3.28640801 300.70906476 3.20931635 302.64022136 3.13109058 C322.7277425 2.32953707 342.78073951 2.09321167 362.8813808 2.08988065 C365.35254702 2.08915642 367.82370809 2.0869974 370.294873 2.08438343 C378.98554519 2.07521785 387.67620235 2.07103798 396.36687922 2.07183498 C404.3592203 2.07243578 412.35149391 2.0618605 420.34381795 2.04609132 C427.30449755 2.03286618 434.26515547 2.02765714 441.22584748 2.02829039 C445.33998562 2.02854071 449.45406329 2.02595566 453.56818843 2.01511234 C519.34680198 1.8536752 519.34680198 1.8536752 538.52850032 9.25713772 C538.19850032 10.24713772 537.86850032 11.23713772 537.52850032 12.25713772 C527.62434633 15.086896 518.05106694 15.55915283 507.77850032 15.56963772 C506.52843196 15.57479397 505.2783636 15.57995022 503.99041438 15.58526272 C494.91647523 15.51578766 494.91647523 15.51578766 491.52850032 13.25713772 C493.08966851 12.91762153 494.6525137 12.58581227 496.21600032 12.25713772 C497.08611751 12.07151272 497.95623469 11.88588772 498.85271907 11.69463772 C501.46562996 11.26741725 503.8866307 11.18097571 506.52850032 11.25713772 C506.52850032 10.59713772 506.52850032 9.93713772 506.52850032 9.25713772 C505.42893001 9.13596584 504.32935969 9.01479397 503.19646907 8.88995022 C489.7657356 7.37785063 489.7657356 7.37785063 483.77850032 6.19463772 C474.46083685 4.39897268 464.99719324 4.06477149 455.52850032 4.25713772 C456.50689876 4.37830959 457.48529719 4.49948147 458.49334407 4.62432522 C465.59118342 5.52434465 472.57138349 6.54837218 479.52850032 8.25713772 C479.52850032 8.91713772 479.52850032 9.57713772 479.52850032 10.25713772 C476.55850032 10.25713772 473.58850032 10.25713772 470.52850032 10.25713772 C470.52850032 10.91713772 470.52850032 11.57713772 470.52850032 12.25713772 C471.54428157 12.36670803 472.56006282 12.47627834 473.60662532 12.58916897 C482.11363283 13.55304774 490.26959692 14.91085834 498.52850032 17.25713772 C498.52850032 17.58713772 498.52850032 17.91713772 498.52850032 18.25713772 C494.42434843 18.28611869 490.32022279 18.30392992 486.21600032 18.31963772 C485.04875422 18.32801662 483.88150813 18.33639553 482.67889094 18.34502834 C481.00149837 18.34986233 481.00149837 18.34986233 479.29021907 18.35479397 C478.25856624 18.36003078 477.2269134 18.3652676 476.16399837 18.37066311 C473.52850032 18.25713772 473.52850032 18.25713772 470.52850032 17.25713772 C468.30897065 17.68061154 466.10073722 18.16346392 463.89861751 18.66973537 C450.46061534 21.32862346 436.61989366 20.69456164 422.98000121 20.66011423 C418.92574797 20.65236059 414.871512 20.65961267 410.81725764 20.66427273 C403.95827261 20.66971794 397.09938459 20.66260508 390.24041438 20.648251 C383.35883844 20.63400777 376.47745813 20.63354434 369.59588313 20.648251 C319.89533292 20.75184259 270.02932569 20.58549205 220.46341014 16.46281666 C215.67247294 16.12706703 210.89171369 16.1085419 206.09100032 16.13213772 C204.58219295 16.13612575 204.58219295 16.13612575 203.04290462 16.14019436 C196.88311128 16.17940342 190.7954822 16.4372534 184.65740657 16.97198147 C177.34058101 17.54375989 169.98477029 17.64763825 162.65081477 17.86431545 C161.49154475 17.9011343 160.33227473 17.93795315 159.13787532 17.97588772 C158.10630305 18.00618068 157.07473079 18.03647365 156.01189876 18.06768459 C153.22276959 18.21937819 150.48309751 18.45403415 147.70721126 18.74566311 C142.82602725 19.2514322 137.96225662 19.53042028 133.05975032 19.72198147 C132.14518062 19.7595808 131.23061091 19.79718014 130.28832698 19.83591884 C127.2018852 19.96030113 124.11525997 20.07841777 121.02850032 20.19463772 C119.92784236 20.23627041 118.8271844 20.2779031 117.69317317 20.32079738 C42.48137024 23.12590268 -32.78756136 24.61702285 -108.03399968 22.38213772 C-108.70909959 22.36242412 -109.3841995 22.34271053 -110.07975698 22.32239956 C-125.0705645 21.88218317 -140.04009273 21.23142145 -155.00665593 20.28057522 C-156.87421292 20.16300365 -156.87421292 20.16300365 -158.77949834 20.04305691 C-196.98930692 17.49823409 -196.98930692 17.49823409 -205.47149968 13.25713772 C-205.14149968 12.26713772 -204.81149968 11.27713772 -204.47149968 10.25713772 C-196.65385169 7.17434682 -187.83514784 6.49534824 -179.53399968 5.69463772 C-178.28006413 5.57096828 -177.02612859 5.44729885 -175.73419499 5.31988186 C-159.34413586 3.7543515 -142.91557807 2.9921609 -126.47149968 2.25713772 C-125.52975078 2.21451935 -124.58800187 2.17190098 -123.61771512 2.12799114 C-82.40154021 0.27554268 -41.24973229 -0.05931548 0 0 Z " fill="#ABCD38" transform="translate(605.4714996814728,581.7428622841835)"/>
<path d="M0 0 C2.47116622 -0.00072422 4.94232729 -0.00288325 7.4134922 -0.00549722 C16.1041644 -0.0146628 24.79482156 -0.01884267 33.48549843 -0.01804566 C41.4778395 -0.01744487 49.47011312 -0.02802015 57.46243715 -0.04378933 C64.42311675 -0.05701446 71.38377467 -0.0622235 78.34446669 -0.06159025 C82.45860482 -0.06133994 86.57268249 -0.06392498 90.68680763 -0.0747683 C156.46542119 -0.23620544 156.46542119 -0.23620544 175.64711952 7.16725707 C175.31711952 8.15725707 174.98711952 9.14725707 174.64711952 10.16725707 C164.74296553 12.99701535 155.16968614 13.46927218 144.89711952 13.47975707 C143.64705116 13.48491332 142.3969828 13.49006957 141.10903358 13.49538207 C132.03509443 13.42590701 132.03509443 13.42590701 128.64711952 11.16725707 C130.20828771 10.82774088 131.77113291 10.49593163 133.33461952 10.16725707 C134.20473671 9.98163207 135.0748539 9.79600707 135.97133827 9.60475707 C138.58424916 9.1775366 141.00524991 9.09109506 143.64711952 9.16725707 C143.64711952 8.50725707 143.64711952 7.84725707 143.64711952 7.16725707 C142.54754921 7.0460852 141.4479789 6.92491332 140.31508827 6.80006957 C126.8843548 5.28796999 126.8843548 5.28796999 120.89711952 4.10475707 C111.57945605 2.30909203 102.11581245 1.97489085 92.64711952 2.16725707 C93.62551796 2.28842895 94.6039164 2.40960082 95.61196327 2.53444457 C102.70980262 3.434464 109.69000269 4.45849153 116.64711952 6.16725707 C116.64711952 6.82725707 116.64711952 7.48725707 116.64711952 8.16725707 C113.67711952 8.16725707 110.70711952 8.16725707 107.64711952 8.16725707 C107.64711952 8.82725707 107.64711952 9.48725707 107.64711952 10.16725707 C108.66290077 10.27682738 109.67868202 10.3863977 110.72524452 10.49928832 C119.23225204 11.4631671 127.38821612 12.8209777 135.64711952 15.16725707 C135.64711952 15.49725707 135.64711952 15.82725707 135.64711952 16.16725707 C131.54296763 16.19623805 127.43884199 16.21404928 123.33461952 16.22975707 C122.16737343 16.23813598 121.00012733 16.24651488 119.79751015 16.2551477 C118.12011757 16.25998168 118.12011757 16.25998168 116.40883827 16.26491332 C115.37718544 16.27015014 114.34553261 16.27538695 113.28261757 16.28078246 C110.64711952 16.16725707 110.64711952 16.16725707 107.64711952 15.16725707 C105.42758985 15.5907309 103.21935643 16.07358328 101.01723671 16.57985473 C87.57923454 19.23874282 73.73851286 18.604681 60.09862041 18.57023358 C56.04436717 18.56247994 51.9901312 18.56973203 47.93587685 18.57439208 C41.07689181 18.5798373 34.21800379 18.57272444 27.35903358 18.55837035 C20.47745764 18.54412712 13.59607734 18.5436639 6.71450233 18.55837035 C-38.60672113 18.65282204 -83.755453 17.73708172 -129.01593208 15.34349418 C-132.18544513 15.17609998 -135.35512153 15.01237897 -138.52490807 14.85025573 C-155.50247803 13.97950012 -172.43760762 12.90121089 -189.35288048 11.16725707 C-189.35288048 10.83725707 -189.35288048 10.50725707 -189.35288048 10.16725707 C-177.8529237 8.62216299 -166.3568692 7.51087649 -154.79038048 6.60475707 C-152.4019082 6.41607236 -150.01353863 6.22629746 -147.62535667 6.03397155 C-146.15852339 5.91597399 -144.69152185 5.80004075 -143.22432518 5.68665099 C-140.13413724 5.43922649 -137.08342576 5.12695163 -134.01685143 4.66824889 C-130.61975108 4.20374753 -127.30742298 3.94595822 -123.88388634 3.7942102 C-122.63985542 3.73745116 -121.39582451 3.68069213 -120.11409569 3.62221313 C-118.76531023 3.56419413 -117.41651958 3.5062956 -116.06772423 3.44850707 C-114.64743002 3.38532271 -113.22714722 3.32188137 -111.80687523 3.25819945 C-108.8204277 3.12501425 -105.8338917 2.99412065 -102.84726524 2.86501098 C-99.1184477 2.70375889 -95.38983697 2.53824483 -91.66128254 2.37103057 C-88.71518999 2.23921212 -85.76901875 2.10922145 -82.82282257 1.97974181 C-80.81099965 1.89121177 -78.79921627 1.80178441 -76.78743553 1.71230102 C-73.20345795 1.55778649 -69.6193846 1.41110918 -66.03479195 1.27183509 C-64.10351936 1.19652736 -62.17231603 1.1194357 -60.24115944 1.04120994 C-40.15363829 0.23965643 -20.10064128 0.00333102 0 0 Z " fill="#2970AB" transform="translate(968.3528804779053,583.8327429294586)"/>
<path d="M0 0 C5.86025335 0.00571354 11.72046144 0.00230329 17.58071327 -0.00344563 C60.10265279 -0.03877571 60.10265279 -0.03877571 80.30078125 0.88525391 C86.90359631 1.18254609 93.50606614 1.28549275 100.11450195 1.37646484 C101.24276901 1.39312195 102.37103607 1.40977905 103.53349304 1.42694092 C108.10503543 1.49328324 112.67654654 1.55641561 117.24829102 1.60717773 C120.66221119 1.64660544 124.0757762 1.6980403 127.48950195 1.75146484 C129.04538025 1.76408607 129.04538025 1.76408607 130.63269043 1.77696228 C132.06324768 1.80192528 132.06324768 1.80192528 133.52270508 1.82739258 C134.35838013 1.83770004 135.19405518 1.84800751 136.05505371 1.85862732 C138.20825195 2.13037109 138.20825195 2.13037109 141.20825195 4.13037109 C120.28826519 7.03981184 99.40349247 8.17965786 78.3168335 9.00604248 C75.11905739 9.13393846 71.92172813 9.27038422 68.72436523 9.40820312 C32.38956623 10.9512738 -3.91534492 11.31899201 -40.28005981 11.31795502 C-42.56259159 11.31789948 -44.84512344 11.31832452 -47.12765503 11.31925201 C-69.15045803 11.3281995 -91.17120449 11.32391364 -113.1862793 10.68115234 C-113.86547865 10.66185354 -114.544678 10.64255474 -115.24445915 10.62267113 C-128.17212455 10.2420386 -141.04148062 9.37570121 -153.79174805 7.13037109 C-145.61265883 -1.04871813 -118.54303403 2.38740232 -107.79174805 2.06787109 C-105.34120563 1.98976939 -102.89068451 1.91099656 -100.44018555 1.83154297 C-95.42889875 1.66994685 -90.417441 1.51656975 -85.40576172 1.36767578 C-80.48291956 1.21937311 -75.56186814 1.04803338 -70.640625 0.85400391 C-47.09697385 -0.0400787 -23.55788655 -0.02317279 0 0 Z " fill="#F9FBF0" transform="translate(659.791748046875,587.86962890625)"/>
<path d="M0 0 C0 8.91 0 17.82 0 27 C0.99 26.34 1.98 25.68 3 25 C10.26090657 22.98308151 17.29098434 23.64549217 24 27 C28.99535182 30.73204856 32.25804295 34.95438435 34 41 C34.96481754 49.04467581 33.74691276 57.74021527 28.8125 64.375 C22.00678319 70.72700236 14.89157533 72.18058545 5.875 72.1875 C5.05773437 72.19974609 4.24046875 72.21199219 3.3984375 72.22460938 C2.17640625 72.22750977 2.17640625 72.22750977 0.9296875 72.23046875 C0.19991699 72.23457764 -0.52985352 72.23868652 -1.28173828 72.24291992 C-5.27277794 71.88625705 -9.10820531 70.9307616 -13 70 C-13.02312611 61.28155997 -13.04091646 52.56313044 -13.05181217 43.84466648 C-13.05704041 39.79674258 -13.06413699 35.74883959 -13.07543945 31.70092773 C-13.08627043 27.79764029 -13.09227728 23.89437301 -13.09487724 19.9910717 C-13.09673111 18.49866353 -13.100351 17.00625652 -13.10573006 15.51385689 C-13.11294331 13.43051861 -13.11399083 11.34726469 -13.11352539 9.26391602 C-13.115746 8.07588882 -13.11796661 6.88786163 -13.12025452 5.66383362 C-13 3 -13 3 -12 2 C-10.36358203 1.60460448 -8.71529205 1.25762472 -7.0625 0.9375 C-5.71865234 0.67259766 -5.71865234 0.67259766 -4.34765625 0.40234375 C-2 0 -2 0 0 0 Z " fill="#2076C3" transform="translate(439,644)"/>
<path d="M0 0 C0 23.1 0 46.2 0 70 C-6.37812436 70.70868048 -12.27468174 71.18237878 -18.625 71.1875 C-19.43195312 71.19974609 -20.23890625 71.21199219 -21.0703125 71.22460938 C-29.25042341 71.24452848 -35.16140802 69.72124469 -41.19921875 64.046875 C-45.94694653 58.65032542 -47.7294952 52.68109096 -47.375 45.546875 C-46.20627837 37.60930724 -43.20218632 32.41427638 -37 27.375 C-36.34 26.92125 -35.68 26.4675 -35 26 C-34.15695312 25.41605469 -34.15695312 25.41605469 -33.296875 24.8203125 C-29.66537539 23.52334835 -26.06997177 23.79327777 -22.25 23.875 C-18.16625 23.936875 -18.16625 23.936875 -14 24 C-13.67 16.74 -13.34 9.48 -13 2 C-6 0 -6 0 0 0 Z " fill="#2177C5" transform="translate(604,645)"/>
<path d="M0 0 C6.93743758 0.00871014 13.87480282 0.00244847 20.81223589 -0.00725722 C27.65881681 -0.01643483 34.50536716 -0.01756853 41.35195225 -0.01237988 C45.37513754 -0.00933181 49.39827444 -0.00864649 53.42145622 -0.01545286 C118.46720913 -0.11066103 118.46720913 -0.11066103 137.55650604 7.25713778 C137.22650604 8.24713778 136.89650604 9.23713778 136.55650604 10.25713778 C126.65235204 13.08689606 117.07907266 13.55915289 106.80650604 13.56963778 C105.55643768 13.57479403 104.30636932 13.57995028 103.0184201 13.58526278 C93.94448095 13.51578771 93.94448095 13.51578771 90.55650604 11.25713778 C92.11767423 10.91762159 93.68051942 10.58581233 95.24400604 10.25713778 C96.11412323 10.07151278 96.98424041 9.88588778 97.88072479 9.69463778 C100.49363568 9.26741731 102.91463642 9.18097577 105.55650604 9.25713778 C105.55650604 8.59713778 105.55650604 7.93713778 105.55650604 7.25713778 C103.90715057 7.07537996 103.90715057 7.07537996 102.22447479 6.88995028 C88.79374132 5.37785069 88.79374132 5.37785069 82.80650604 4.19463778 C73.48884257 2.39897274 64.02519896 2.06477155 54.55650604 2.25713778 C55.53490448 2.37830965 56.51330291 2.49948153 57.52134979 2.62432528 C64.61918913 3.52434471 71.59938921 4.54837224 78.55650604 6.25713778 C78.55650604 6.91713778 78.55650604 7.57713778 78.55650604 8.25713778 C75.58650604 8.25713778 72.61650604 8.25713778 69.55650604 8.25713778 C69.55650604 8.91713778 69.55650604 9.57713778 69.55650604 10.25713778 C71.08017791 10.42149324 71.08017791 10.42149324 72.63463104 10.58916903 C81.14163855 11.5530478 89.29760264 12.9108584 97.55650604 15.25713778 C97.55650604 15.58713778 97.55650604 15.91713778 97.55650604 16.25713778 C93.45235415 16.28611875 89.3482285 16.30392998 85.24400604 16.31963778 C84.07675994 16.32801668 82.90951385 16.33639559 81.70689666 16.3450284 C80.02950408 16.34986238 80.02950408 16.34986238 78.31822479 16.35479403 C76.77074554 16.36264925 76.77074554 16.36264925 75.19200408 16.37066317 C72.55650604 16.25713778 72.55650604 16.25713778 69.55650604 15.25713778 C67.93709855 15.50941282 66.32831337 15.83138211 64.72838104 16.18682528 C55.16265747 17.90219765 45.48757386 17.46851767 35.80650604 17.38213778 C33.8377606 17.37208654 31.86901018 17.36296449 29.90025604 17.35479403 C25.11888133 17.33295352 20.33774972 17.2985421 15.55650604 17.25713778 C19.11746159 15.38212136 22.66879464 14.30382931 26.55650604 13.25713778 C26.55650604 12.92713778 26.55650604 12.59713778 26.55650604 12.25713778 C29.19650604 11.59713778 31.83650604 10.93713778 34.55650604 10.25713778 C30.20367262 9.76536799 25.84905568 9.2913434 21.49400604 8.81963778 C20.30355682 8.68493074 19.1131076 8.55022371 17.88658416 8.41143465 C-3.43517789 6.12894837 -24.82897873 6.09355709 -46.25086701 6.13018465 C-48.9334571 6.13279767 -51.61601455 6.12791791 -54.29860032 6.12331533 C-66.29643072 6.10596072 -78.25945811 6.10252807 -90.23394501 6.9010129 C-98.67454265 7.44817265 -107.11408122 7.36548225 -115.56849396 7.31963778 C-117.22083632 7.31460114 -118.87318021 7.31004214 -120.52552521 7.3059659 C-124.49822057 7.29515823 -128.47083932 7.27801943 -132.44349396 7.25713778 C-132.44349396 6.59713778 -132.44349396 5.93713778 -132.44349396 5.25713778 C-136.40349396 5.25713778 -140.36349396 5.25713778 -144.44349396 5.25713778 C-144.44349396 4.92713778 -144.44349396 4.59713778 -144.44349396 4.25713778 C-143.08804474 4.16625887 -143.08804474 4.16625887 -141.70521271 4.07354403 C-140.52572052 3.98975496 -139.34622834 3.9059659 -138.13099396 3.81963778 C-136.37335724 3.69782137 -136.37335724 3.69782137 -134.58021271 3.57354403 C-131.41758438 3.37040067 -131.41758438 3.37040067 -128.44349396 2.25713778 C-127.00821923 2.1169856 -125.56793785 2.02513322 -124.12713349 1.96398592 C-123.2384854 1.92482813 -122.34983731 1.88567034 -121.43426049 1.84532595 C-120.45463908 1.80752268 -119.47501767 1.76971941 -118.46571076 1.73077059 C-116.90036937 1.66717726 -116.90036937 1.66717726 -115.30340493 1.60229921 C-111.77092342 1.46366569 -108.23819816 1.33538074 -104.70521271 1.21026278 C-103.46554938 1.16589334 -102.22588604 1.12152391 -100.94865716 1.07580996 C-67.30642231 -0.09141074 -33.6583703 -0.04723786 0 0 Z " fill="#1C66A1" transform="translate(1006.4434939622879,583.7428622245789)"/>
<path d="M0 0 C0.328125 2.05859375 0.328125 2.05859375 0.25 4.4375 C0.23453125 5.21996094 0.2190625 6.00242187 0.203125 6.80859375 C0 9 0 9 -1 12 C-1.82177734 11.7834375 -1.82177734 11.7834375 -2.66015625 11.5625 C-11.88954761 9.40147178 -23.8486938 7.41014862 -32.3515625 12.58984375 C-37.08406163 16.63826126 -40.65579411 21.49401713 -41.2734375 27.78515625 C-41.51629005 35.6218212 -40.77690324 41.6029999 -36 48 C-30.59809685 53.11821458 -25.5298726 54.19409121 -18.3125 54.1875 C-17.59513672 54.18814453 -16.87777344 54.18878906 -16.13867188 54.18945312 C-11.08502198 54.13896253 -6.77652664 53.59217555 -2 52 C-0.00214565 56.1205746 0.17835515 59.45194365 0 64 C-6.67375802 66.68304149 -12.64214134 67.54740733 -19.8125 67.5 C-20.77792725 67.49645508 -21.74335449 67.49291016 -22.73803711 67.48925781 C-32.80510069 67.25555359 -40.30664494 64.72381604 -48 58 C-55.61809094 48.97765267 -57.68003708 39.38224987 -57.41015625 27.75390625 C-56.39449076 18.45814877 -52.18325831 10.04905963 -45 4 C-32.74738775 -4.31692468 -13.23152468 -8.82101646 0 0 Z " fill="#2378C5" transform="translate(376,649)"/>
<path d="M0 0 C0 9.57 0 19.14 0 29 C0.66 29 1.32 29 2 29 C2 28.34 2 27.68 2 27 C7.28660617 23.85053249 11.79333509 21.80918638 18 23 C24.20691547 25.11805327 28.11641405 28.23325025 31.08935547 34.1784668 C32.23356539 37.72367699 32.2499072 41.02583024 32.1953125 44.70703125 C32.1924826 45.43242599 32.18965271 46.15782074 32.18673706 46.90519714 C32.17559799 49.20780368 32.15050566 51.51001227 32.125 53.8125 C32.11496206 55.37955165 32.10583763 56.94660943 32.09765625 58.51367188 C32.0756793 62.34259978 32.04119339 66.17123256 32 70 C27.71 70 23.42 70 19 70 C18.96261719 67.96457031 18.92523437 65.92914062 18.88671875 63.83203125 C18.83802506 61.84950244 18.78922806 59.86697472 18.73754883 57.88452148 C18.70440194 56.51224042 18.67633829 55.13982638 18.65356445 53.76733398 C18.61983234 51.78862234 18.5659851 49.81028624 18.51171875 47.83203125 C18.48553467 46.64327393 18.45935059 45.4545166 18.43237305 44.22973633 C17.96435527 40.73374131 17.13128636 38.78885202 15 36 C12.64559919 35.24835893 12.64559919 35.24835893 10.0625 35.4375 C9.20785156 35.43621094 8.35320313 35.43492187 7.47265625 35.43359375 C4.1578041 36.19292007 3.09498341 37.33150979 1 40 C0.35856672 43.28116076 0.35856672 43.28116076 0.390625 46.953125 C0.37408875 47.61334656 0.35755249 48.27356812 0.34051514 48.95379639 C0.29211549 51.05262626 0.27068481 53.15073222 0.25 55.25 C0.22183317 56.6771196 0.19190472 58.10420559 0.16015625 59.53125 C0.08636237 63.02067609 0.03673721 66.50996472 0 70 C-3.96 70 -7.92 70 -12 70 C-12 47.23 -12 24.46 -12 1 C-5 0 -5 0 0 0 Z " fill="#1E76C4" transform="translate(719,645)"/>
<path d="M0 0 C5.81535297 2.43386985 10.16044596 6.32089191 13 12 C14.23193733 28.52007762 14.23193733 28.52007762 9 35 C5.43591804 38.69436172 2.25035419 40.87383933 -2.99609375 41.16796875 C-4.13175781 41.17441406 -5.26742187 41.18085937 -6.4375 41.1875 C-7.57058594 41.20167969 -8.70367188 41.21585938 -9.87109375 41.23046875 C-12.85457979 41.01071135 -14.49295423 40.55843386 -17 39 C-16.98839844 40.28777344 -16.97679687 41.57554687 -16.96484375 42.90234375 C-16.9554673 44.58072772 -16.94636695 46.25911326 -16.9375 47.9375 C-16.92912109 48.78763672 -16.92074219 49.63777344 -16.91210938 50.51367188 C-16.90888672 51.32255859 -16.90566406 52.13144531 -16.90234375 52.96484375 C-16.89710693 53.7137085 -16.89187012 54.46257324 -16.88647461 55.23413086 C-17 57 -17 57 -18 58 C-20.64 58 -23.28 58 -26 58 C-26 39.19 -26 20.38 -26 1 C-23.36 1 -20.72 1 -18 1 C-17.67 1.99 -17.34 2.98 -17 4 C-16.05125 3.34 -15.1025 2.68 -14.125 2 C-9.49253916 -0.61102339 -5.20047839 -0.9440618 0 0 Z " fill="#9EC730" transform="translate(962,675)"/>
<path d="M0 0 C4.19518229 3.57239234 6.95027915 7.54145161 8 13 C8 16.63 8 20.26 8 24 C-2.56 24 -13.12 24 -24 24 C-20.66666667 29.83333333 -20.66666667 29.83333333 -17 32 C-14.47727742 32.1693295 -12.08042584 32.23336826 -9.5625 32.1875 C-8.24378906 32.18105469 -6.92507813 32.17460938 -5.56640625 32.16796875 C-2.81483082 32.03837648 -0.59810901 31.83059751 2 31 C4.03435531 34.72965139 5 36.66905042 5 41 C-3.7953464 44.76943417 -13.7466128 45.73393021 -23.04296875 43.15625 C-28.97541638 40.49966226 -32.80593031 36.63382033 -36 31 C-38.16880227 24.49359318 -38.35008175 14.86560109 -35.5 8.5 C-32.27298185 3.25895633 -27.55525913 -0.74955404 -22.0625 -3.4375 C-13.97005919 -4.92386668 -7.22848669 -4.18491335 0 0 Z " fill="#2579C5" transform="translate(514,672)"/>
<path d="M0 0 C5.25874925 1.83675155 9.02557822 5.30956566 12 10 C14.83929601 15.96252162 14 19.6920288 14 27 C3.44 27 -7.12 27 -18 27 C-15.23436655 32.00023964 -15.23436655 32.00023964 -11 35 C-7.43487906 35.40111876 -7.43487906 35.40111876 -3.5625 35.25 C-2.26441406 35.23453125 -0.96632813 35.2190625 0.37109375 35.203125 C3.37380908 35.03505051 6.08381806 34.69673711 9 34 C10.42258812 37.82320557 11.24042276 40.91281305 11 45 C1.22783034 47.73401151 -10.25474058 49.30897249 -19.75 44.875 C-25.8831369 41.17217075 -29.05915257 36.95680377 -31 30 C-31.84669225 22.39759482 -31.90354782 15.45931699 -27.63671875 8.90625 C-19.98061849 -0.01064004 -11.21482446 -1.36365346 0 0 Z " fill="#2177C4" transform="translate(787,669)"/>
<path d="M0 0 C4.29 0 8.58 0 13 0 C13.04898438 2.11921875 13.09796875 4.2384375 13.1484375 6.421875 C13.20249024 8.48053886 13.2597807 10.539089 13.31738281 12.59765625 C13.35560024 14.02530398 13.39046572 15.45304563 13.421875 16.88085938 C13.46768401 18.93653868 13.5256498 20.99157554 13.5859375 23.046875 C13.6173584 24.28276367 13.6487793 25.51865234 13.68115234 26.79199219 C13.97881277 29.78682982 14.33196569 31.52944185 16 34 C19.05693322 35.52846661 21.62984547 35.23242445 25 35 C27.31007177 34.0435824 27.31007177 34.0435824 29 32 C29.42714081 29.43505382 29.6047623 27.27677795 29.609375 24.70703125 C29.62591125 24.00100266 29.64244751 23.29497406 29.65948486 22.56755066 C29.70801288 20.31577908 29.72934438 18.06468291 29.75 15.8125 C29.77815599 14.28447114 29.80808291 12.75647381 29.83984375 11.22851562 C29.91710595 7.48536516 29.95757104 3.74435562 30 0 C34.62 0 39.24 0 44 0 C44 15.18 44 30.36 44 46 C40.04 46 36.08 46 32 46 C32 44.68 32 43.36 32 42 C31.0925 42.639375 30.185 43.27875 29.25 43.9375 C23.78725342 47.40424302 18.37245127 47.70695916 12 47 C7.14073993 45.30982258 3.83483997 42.25225995 1 38 C-0.23180134 34.30459598 -0.12412112 30.89696622 -0.09765625 27.05078125 C-0.0962413 26.27816452 -0.09482635 25.50554779 -0.09336853 24.70951843 C-0.08777466 22.24380611 -0.07522333 19.77818485 -0.0625 17.3125 C-0.05748421 15.63997527 -0.05292144 13.96744912 -0.04882812 12.29492188 C-0.03780724 8.19657954 -0.02054684 4.09830521 0 0 Z " fill="#257AC7" transform="translate(612,669)"/>
<path d="M0 0 C5.23554965 3.10143989 9.6575898 7.2227694 11.61328125 13.08984375 C12.51678239 22.12485512 10.96850549 28.80261278 5.36328125 35.96484375 C0.36706018 39.82556003 -5.02354918 41.72450072 -11.375 41.4375 C-16.56357352 40.5408339 -20.79443344 38.0873567 -24.26171875 34.15234375 C-28.93820574 27.41270074 -29.18044627 21.12633486 -28.38671875 13.08984375 C-26.52336754 7.05512676 -21.80683563 3.16529929 -16.55859375 -0.01953125 C-11.49420525 -2.09629488 -5.08236622 -1.93812001 0 0 Z " fill="#9BC633" transform="translate(1168.38671875,675.91015625)"/>
<path d="M0 0 C4.8027867 3.76628786 7.43269582 7.77205118 8.3359375 13.8515625 C8.55821546 20.76440695 8.18859654 26.84541663 3.828125 32.43359375 C-2.31731939 38.27176592 -7.35630794 38.94228243 -15.6796875 38.8125 C-20.55091765 38.28396608 -23.66633434 36.82434341 -27.171875 33.43359375 C-32.42383618 26.70031019 -32.92167037 20.75526626 -32.171875 12.43359375 C-30.47418764 6.49653851 -27.20410524 2.85551031 -22.171875 -0.56640625 C-15.21071108 -3.88877994 -6.70800622 -3.94027195 0 0 Z " fill="#A0C733" transform="translate(891.171875,677.56640625)"/>
<path d="M0 0 C5.62285295 2.52432512 9.95505943 6.82808761 12.71484375 12.34765625 C13.37536061 19.99232676 13.61730374 27.09524351 8.71484375 33.34765625 C3.49544791 38.64842351 0.12540766 40.53796578 -7.41015625 40.78515625 C-13.24900429 40.82957397 -17.40194608 40.2615475 -21.765625 36.1640625 C-26.92864357 29.99233079 -27.99991733 24.54056021 -27.73828125 16.4765625 C-26.8737149 10.50658281 -24.04794906 6.98146422 -19.72265625 2.97265625 C-13.48211969 -1.18770146 -7.34574914 -2.09699164 0 0 Z " fill="#9DC531" transform="translate(1008.28515625,675.65234375)"/>
<path d="M0 0 C1.24622131 0.00095673 2.49244263 0.00191345 3.77642822 0.00289917 C24.77370578 0.04067345 45.73365986 0.45649708 66.625 2.6875 C67.87925781 2.80931641 69.13351562 2.93113281 70.42578125 3.05664062 C72.21822266 3.24323242 72.21822266 3.24323242 74.046875 3.43359375 C75.6261377 3.59686157 75.6261377 3.59686157 77.23730469 3.76342773 C79.875 4.25 79.875 4.25 82.875 6.25 C64.98042765 10.08189387 46.58252984 9.52579187 28.375 9.5625 C27.68139248 9.5645343 26.98778496 9.5665686 26.27315903 9.56866455 C-17.56202914 9.68811697 -61.35179792 7.35640002 -105.125 5.25 C-105.125 4.92 -105.125 4.59 -105.125 4.25 C-98.56665158 3.1510175 -92.00286518 2.83276044 -85.3671875 2.49609375 C-83.46525635 2.39806206 -83.46525635 2.39806206 -81.52490234 2.29804993 C-77.35033829 2.08593994 -73.17525642 1.88545247 -69 1.6875 C-68.28653664 1.6534053 -67.57307327 1.61931061 -66.83798981 1.58418274 C-44.55416969 0.52478763 -22.30910672 -0.03480933 0 0 Z " fill="#E7F1F7" transform="translate(961.125,588.75)"/>
<path d="M0 0 C0.14285714 7.42857143 0.14285714 7.42857143 -1 11 C-1.66 10.835 -2.32 10.67 -3 10.5 C-9.84451462 9.35924756 -14.87135274 9.51508293 -21 13 C-24.05855433 16.4532065 -24.473853 19.61404797 -24.2890625 24.07421875 C-23.73530447 27.76344452 -21.95554863 30.02571512 -19.40625 32.625 C-15.94027051 34.60555971 -12.62160452 34.32088567 -8.75 34.1875 C-8.00492188 34.17396484 -7.25984375 34.16042969 -6.4921875 34.14648438 C-4.66114584 34.11127204 -2.83047831 34.05746851 -1 34 C0.5168015 38.17988811 1.2743328 40.66726849 0 45 C-4.27751434 46.18773351 -8.3338537 46.25838056 -12.75 46.3125 C-13.5234375 46.34150391 -14.296875 46.37050781 -15.09375 46.40039062 C-22.01340902 46.4758567 -27.06503484 44.57753372 -32.27734375 40 C-32.82519531 39.34 -33.37304688 38.68 -33.9375 38 C-34.50339844 37.34 -35.06929687 36.68 -35.65234375 36 C-38.5170738 31.74857454 -38.24385072 27.11351437 -38.3125 22.125 C-38.34150391 21.43019531 -38.37050781 20.73539063 -38.40039062 20.01953125 C-38.48084388 13.44711938 -35.87550429 10.12895082 -31.6875 5.375 C-22.13577115 -3.06606271 -11.80566774 -3.43437607 0 0 Z " fill="#2178C7" transform="translate(700,670)"/>
<path d="M0 0 C3.71938508 1.90863182 5.45953412 4.78885264 7.5 8.375 C7.95410156 11.90185547 7.95410156 11.90185547 7.890625 15.7421875 C7.88496521 16.42177521 7.87930542 17.10136292 7.87347412 17.80154419 C7.85125351 19.95177549 7.80109198 22.10028074 7.75 24.25 C7.72991614 25.7161216 7.71166868 27.18226958 7.6953125 28.6484375 C7.65143811 32.22451008 7.58251443 35.79958631 7.5 39.375 C4.86 39.375 2.22 39.375 -0.5 39.375 C-0.83 38.385 -1.16 37.395 -1.5 36.375 C-3.170625 37.3959375 -3.170625 37.3959375 -4.875 38.4375 C-9.86831837 40.89874558 -14.20968853 41.16488871 -19.5 39.375 C-23.05409873 36.9844455 -25.0426887 34.30104831 -26.03515625 30.12109375 C-26.32014164 25.80246905 -25.718337 23.72177054 -23.375 20 C-16.63442374 13.8455608 -10.20665072 13.22742965 -1.5 13.375 C-2.49720119 9.18453104 -2.49720119 9.18453104 -5.1875 6 C-10.66925543 4.51844448 -15.29216842 5.34267548 -20.5 7.375 C-21.16 5.395 -21.82 3.415 -22.5 1.375 C-15.88501969 -3.03498688 -7.2322517 -3.23690666 0 0 Z " fill="#9DC631" transform="translate(1078.5,676.625)"/>
<path d="M0 0 C0 23.43 0 46.86 0 71 C-4.29 71 -8.58 71 -13 71 C-13 48.23 -13 25.46 -13 2 C-1 0 -1 0 0 0 Z " fill="#1F75C1" transform="translate(396,644)"/>
<path d="M0 0 C4.01441484 3.22331422 5.46593426 5.87099289 6.86328125 10.87109375 C7.09033203 14.21435547 7.09033203 14.21435547 7.05859375 17.80078125 C7.05214844 19.08984375 7.04570313 20.37890625 7.0390625 21.70703125 C7.02235588 23.05338817 7.00542604 24.39974234 6.98828125 25.74609375 C6.97823789 27.11587892 6.96911442 28.48567117 6.9609375 29.85546875 C6.93742537 33.19419131 6.90456055 36.53255136 6.86328125 39.87109375 C3.89328125 39.87109375 0.92328125 39.87109375 -2.13671875 39.87109375 C-2.14606445 39.01354492 -2.15541016 38.15599609 -2.16503906 37.27246094 C-2.20913166 34.08136696 -2.27077931 30.89122619 -2.34423828 27.70068359 C-2.37240974 26.32157724 -2.39364347 24.94231057 -2.40771484 23.56298828 C-2.4291942 21.57686426 -2.47795007 19.59109466 -2.52734375 17.60546875 C-2.54829102 16.41147461 -2.56923828 15.21748047 -2.59082031 13.98730469 C-3.23872851 10.28878044 -4.149789 9.08616547 -7.13671875 6.87109375 C-10.59400233 6.12098008 -10.59400233 6.12098008 -14.13671875 6.87109375 C-17.36028501 9.42473648 -18.94061505 10.93791315 -19.79614258 15.0090332 C-19.81185303 16.155896 -19.82756348 17.30275879 -19.84375 18.484375 C-19.87275391 19.73154297 -19.90175781 20.97871094 -19.93164062 22.26367188 C-19.93744141 23.55724609 -19.94324219 24.85082031 -19.94921875 26.18359375 C-19.97435547 27.49650391 -19.99949219 28.80941406 -20.02539062 30.16210938 C-20.08423843 33.39873864 -20.12053812 36.63401593 -20.13671875 39.87109375 C-23.10671875 39.87109375 -26.07671875 39.87109375 -29.13671875 39.87109375 C-29.13671875 26.67109375 -29.13671875 13.47109375 -29.13671875 -0.12890625 C-26.49671875 -0.12890625 -23.85671875 -0.12890625 -21.13671875 -0.12890625 C-20.80671875 0.86109375 -20.47671875 1.85109375 -20.13671875 2.87109375 C-19.27046875 2.15953125 -19.27046875 2.15953125 -18.38671875 1.43359375 C-13.39831726 -2.03057395 -5.42654646 -2.86704191 0 0 Z " fill="#99C435" transform="translate(1216.13671875,676.12890625)"/>
<path d="M0 0 C3.3 0 6.6 0 10 0 C11 1 11 1 11.0625 3.5625 C11.041875 4.366875 11.02125 5.17125 11 6 C11.74443359 5.3503125 11.74443359 5.3503125 12.50390625 4.6875 C18.74340108 -0.42722821 18.74340108 -0.42722821 23 -0.375 C24.485 -0.189375 24.485 -0.189375 26 0 C26 3.63 26 7.26 26 11 C22.63085938 12.02539062 22.63085938 12.02539062 19.26171875 13.05078125 C16.71600931 14.1191878 15.65469868 14.79218576 14 17 C13.49231957 20.0968286 13.49231957 20.0968286 13.48828125 23.63671875 C13.45283203 24.93544922 13.41738281 26.23417969 13.38085938 27.57226562 C13.3577595 28.94400517 13.3349771 30.3157501 13.3125 31.6875 C13.27932458 33.07099607 13.24483469 34.45446129 13.20898438 35.83789062 C13.1263727 39.22496933 13.06151428 42.61247246 13 46 C8.71 46 4.42 46 0 46 C0 30.82 0 15.64 0 0 Z " fill="#2078C5" transform="translate(529,669)"/>
<path d="M0 0 C4.62 0 9.24 0 14 0 C14 15.18 14 30.36 14 46 C9.38 46 4.76 46 0 46 C0 30.82 0 15.64 0 0 Z " fill="#297BC7" transform="translate(404,669)"/>
<path d="M0 0 C-0.375 2.9375 -0.375 2.9375 -1 6 C-1.99 6.495 -1.99 6.495 -3 7 C-3.66 6.67 -4.32 6.34 -5 6 C-11.69844992 5.23292951 -11.69844992 5.23292951 -18.0234375 7.046875 C-21.12796934 9.62136482 -22.8526234 11.59360617 -23.2734375 15.609375 C-23.67104107 22.61498161 -23.67104107 22.61498161 -20.6875 28.6875 C-16.38718083 32.38777463 -12.4470182 32.28668517 -7 32 C-5.33065717 31.68033861 -3.6626783 31.35268934 -2 31 C-1 32 -1 32 -0.9375 35.0625 C-0.958125 36.031875 -0.97875 37.00125 -1 38 C-7.57219435 40.19073145 -16.37869836 40.35920169 -22.9140625 37.90625 C-27.52591676 35.00648879 -31.5315685 31.39068934 -33 26 C-33.95571784 18.81373705 -33.94343436 12.59700814 -29.48828125 6.6484375 C-21.53355109 -2.16231349 -11.11253523 -4.6789622 0 0 Z " fill="#9EC630" transform="translate(854,677)"/>
<path d="M0 0 C0.33 3.3 0.66 6.6 1 10 C4.3 10.33 7.6 10.66 11 11 C11 12.98 11 14.96 11 17 C7.37 17 3.74 17 0 17 C0.11383747 20.75064517 0.2405944 24.50008375 0.375 28.25 C0.4059375 29.31347656 0.436875 30.37695312 0.46875 31.47265625 C0.50742188 32.49746094 0.54609375 33.52226563 0.5859375 34.578125 C0.6173584 35.52075195 0.6487793 36.46337891 0.68115234 37.43457031 C1.00980016 40.07885148 1.56066775 41.76788047 3 44 C5.67790463 44.83886169 8.1737941 44.81766414 11 45 C11 46.98 11 48.96 11 51 C-0.62123174 51.76567413 -0.62123174 51.76567413 -3.94140625 49.921875 C-5.25 48.5625 -5.25 48.5625 -7 46 C-7.33 45.67 -7.66 45.34 -8 45 C-8.08767112 42.92737924 -8.10695873 40.85179706 -8.09765625 38.77734375 C-8.09443359 37.51728516 -8.09121094 36.25722656 -8.08789062 34.95898438 C-8.07953403 33.61848891 -8.07106907 32.27799412 -8.0625 30.9375 C-8.0574866 29.59310058 -8.05292342 28.2486994 -8.04882812 26.90429688 C-8.03699488 23.60282059 -8.02050971 20.30143197 -8 17 C-9.98 17 -11.96 17 -14 17 C-14 15.02 -14 13.04 -14 11 C-12.02 11 -10.04 11 -8 11 C-8 7.7 -8 4.4 -8 1 C-5 0 -5 0 0 0 Z " fill="#9AC52D" transform="translate(1105,665)"/>
<path d="M0 0 C3.04735965 1.59322537 5.50356953 3.52887069 6.640625 6.8984375 C7.71353957 13.1726553 7.65651669 18.57826836 4 24 C1.13824342 27.02074305 -0.35602987 27.90800427 -4.5 28.5 C-8.67215733 27.90397752 -10.15298855 27.0842624 -13 24 C-15.63117319 19.19130417 -16.58467457 15.45696262 -16 10 C-14.84256837 6.5277051 -13.72887998 3.86904921 -11.375 1.0625 C-7.58862163 -0.63140611 -4.06373222 -0.75931329 0 0 Z " fill="#F1F2F1" transform="translate(1164,682)"/>
<path d="M0 0 C-0.33 1.32 -0.66 2.64 -1 4 C1.64 4 4.28 4 7 4 C7 4.33 7 4.66 7 5 C-5.87 5.33 -18.74 5.66 -32 6 C-32.33 6.66 -32.66 7.32 -33 8 C-28.38 8 -23.76 8 -19 8 C-19 8.33 -19 8.66 -19 9 C-20.98 9 -22.96 9 -25 9 C-25 9.66 -25 10.32 -25 11 C-48.82634799 11.17756393 -72.29105948 10.38059663 -96 8 C-96 7.67 -96 7.34 -96 7 C-84.50004322 5.45490592 -73.00398872 4.34361942 -61.4375 3.4375 C-59.04902772 3.24881529 -56.66065815 3.05904039 -54.2724762 2.86671448 C-52.80564291 2.74871692 -51.33864137 2.63278368 -49.8714447 2.51939392 C-45.5499129 2.17337845 -41.28934302 1.62102669 -37 1 C-35.43027109 0.86943507 -33.85838336 0.76139163 -32.28515625 0.68359375 C-31.01901489 0.6206311 -31.01901489 0.6206311 -29.72729492 0.55639648 C-28.8479126 0.51716064 -27.96853027 0.4779248 -27.0625 0.4375 C-25.69218628 0.37381226 -25.69218628 0.37381226 -24.29418945 0.30883789 C-16.19131231 -0.0420491 -8.10934384 -0.10323069 0 0 Z " fill="#1571BE" transform="translate(875,587)"/>
<path d="M0 0 C3.52021742 0.9683446 5.30118189 2.38270665 7.4140625 5.3359375 C9.6816041 10.61505778 9.48854325 16.52744696 7.640625 21.921875 C6.32821537 24.43120221 4.82054872 26.34167687 2.6015625 28.1015625 C-0.68318714 28.94621241 -3.20525195 29.07923441 -6.5859375 28.6640625 C-10.73790644 25.34248735 -13.21796082 22.17267278 -13.9921875 16.89453125 C-14.14834001 11.82608117 -14.27198263 7.64245535 -11.2109375 3.4140625 C-7.83696471 0.16801285 -4.58704035 -0.37416945 0 0 Z " fill="#F9F9F5" transform="translate(881.5859375,681.3359375)"/>
<path d="M0 0 C3.02977081 1.74050664 4.4917035 3.17704377 6.3125 6.125 C7.68989407 11.88501157 8.0950529 17.64592408 5.25 23 C2.09734513 27.20353982 2.09734513 27.20353982 -1 28 C-5.13151725 28.45071097 -7.25050691 28.46635126 -10.8125 26.25 C-14.64862485 22.30427158 -15.34552484 19.16493157 -15.5 13.6875 C-15.41644323 9.32288759 -15.19258827 6.24285478 -12.5625 2.6875 C-8.8159692 -0.8814701 -4.91225247 -1.14196275 0 0 Z " fill="#F7F8F6" transform="translate(1005,682)"/>
<path d="M0 0 C3.55227205 0.9039579 5.4278127 2.90109015 7.96484375 5.5 C10.04552255 9.6613576 9.29742276 14.95673315 8.96484375 19.5 C7.7892144 22.85054365 6.62878342 24.73391576 4.33984375 27.375 C0.67838728 29.10937412 -3.07733925 29.34762691 -7.03515625 28.5 C-9.77734375 27.0625 -9.77734375 27.0625 -12.03515625 24.5 C-12.8004852 21.34021417 -12.77911783 18.30044883 -12.72265625 15.0625 C-12.75037109 14.21623047 -12.77808594 13.36996094 -12.80664062 12.49804688 C-12.7832192 6.51621429 -12.7832192 6.51621429 -10.79150391 3.81054688 C-7.24541663 0.67684731 -4.55252955 -0.27961794 0 0 Z " fill="#F9F9F7" transform="translate(957.03515625,681.5)"/>
<path d="M0 0 C0.72567673 0.00395782 1.45135345 0.00791565 2.19902039 0.01199341 C2.95865585 0.00926422 3.71829132 0.00653503 4.50094604 0.00372314 C6.99943508 -0.00035695 9.49745393 0.01237696 11.99589539 0.02761841 C13.27292831 0.03127411 13.27292831 0.03127411 14.57575989 0.03500366 C68.44949423 0.21584954 68.44949423 0.21584954 86.74589539 7.27761841 C86.41589539 8.26761841 86.08589539 9.25761841 85.74589539 10.27761841 C75.84174139 13.10737669 66.26846201 13.57963352 55.99589539 13.59011841 C54.74582703 13.59527466 53.49575867 13.60043091 52.20780945 13.60574341 C43.13387029 13.53626835 43.13387029 13.53626835 39.74589539 11.27761841 C41.30706358 10.93810222 42.86990877 10.60629297 44.43339539 10.27761841 C45.30351257 10.09199341 46.17362976 9.90636841 47.07011414 9.71511841 C49.68302503 9.28789794 52.10402577 9.2014564 54.74589539 9.27761841 C54.74589539 8.61761841 54.74589539 7.95761841 54.74589539 7.27761841 C53.64632507 7.15644653 52.54675476 7.03527466 51.41386414 6.91043091 C37.98313066 5.39833132 37.98313066 5.39833132 31.99589539 4.21511841 C19.03958494 1.75922076 5.87491486 2.15658788 -7.25410461 2.27761841 C-4.78428042 -0.19220579 -3.37168187 0.03150937 0 0 Z " fill="#1F67A2" transform="translate(1057.2541046142578,583.7223815917969)"/>
<path d="M0 0 C3.73738736 1.66106105 5.85257708 3.54597609 8 7 C8.73499157 11.83509158 8.63620138 16.4731167 6.75 21 C3.70093932 24.48464078 0.80925123 26.81086229 -3.97265625 27.1328125 C-9.77777778 27.11111111 -9.77777778 27.11111111 -12 26 C-12.11597653 22.22942453 -12.18717396 18.45930607 -12.25 14.6875 C-12.28351563 13.61564453 -12.31703125 12.54378906 -12.3515625 11.43945312 C-12.36445313 10.41142578 -12.37734375 9.38339844 -12.390625 8.32421875 C-12.41157227 7.37635498 -12.43251953 6.42849121 -12.45410156 5.4519043 C-12 3 -12 3 -10.22167969 1.19067383 C-6.88386622 -0.59817411 -3.65761384 -0.53917017 0 0 Z " fill="#F1F4FB" transform="translate(451,679)"/>
<path d="M0 0 C1.17369141 -0.00386719 1.17369141 -0.00386719 2.37109375 -0.0078125 C4.5625 0.125 4.5625 0.125 7.5625 1.125 C7.5625 9.375 7.5625 17.625 7.5625 26.125 C-4.65448589 26.61861559 -4.65448589 26.61861559 -8.23828125 24.359375 C-11.6670536 20.87579102 -12.75351625 18.18040328 -12.9375 13.3125 C-12.86378754 8.32953771 -11.3644293 5.91230665 -7.9453125 2.40234375 C-5.26936593 0.13541492 -3.42357627 -0.01124327 0 0 Z " fill="#F5F8FC" transform="translate(583.4375,678.875)"/>
<path d="M0 0 C1.134375 0.020625 2.26875 0.04125 3.4375 0.0625 C3.4375 2.7025 3.4375 5.3425 3.4375 8.0625 C1.484375 8.42057292 -0.46875 8.77864583 -2.421875 9.13671875 C-5.5055467 10.47035049 -6.69726451 12.29238617 -8.5625 15.0625 C-9.19610976 18.0442875 -9.19610976 18.0442875 -9.171875 21.23828125 C-9.20410156 22.39521484 -9.23632812 23.55214844 -9.26953125 24.74414062 C-9.29080078 26.54141602 -9.29080078 26.54141602 -9.3125 28.375 C-9.34214844 29.59251953 -9.37179687 30.81003906 -9.40234375 32.06445312 C-9.47291823 35.06386833 -9.52567864 38.0625117 -9.5625 41.0625 C-15.71484375 41.16015625 -15.71484375 41.16015625 -17.5625 41.0625 C-18.5625 40.0625 -18.5625 40.0625 -18.67602539 36.36889648 C-18.67586624 34.72378708 -18.67016988 33.07867269 -18.66015625 31.43359375 C-18.6587413 30.56936295 -18.65732635 29.70513214 -18.65586853 28.81471252 C-18.65025239 26.04310708 -18.63769719 23.2715812 -18.625 20.5 C-18.61998708 18.6256522 -18.61542381 16.75130315 -18.61132812 14.87695312 C-18.60027772 10.27210456 -18.5830023 5.66731579 -18.5625 1.0625 C-15.9225 1.0625 -13.2825 1.0625 -10.5625 1.0625 C-10.2325 2.7125 -9.9025 4.3625 -9.5625 6.0625 C-8.758125 5.258125 -7.95375 4.45375 -7.125 3.625 C-3.5625 0.0625 -3.5625 0.0625 0 0 Z " fill="#9DC735" transform="translate(1046.5625,674.9375)"/>
<path d="M0 0 C0 2.64 0 5.28 0 8 C-1.953125 8.09765625 -3.90625 8.1953125 -5.859375 8.29296875 C-9.08126495 9.35713313 -10.14018859 11.21123664 -12 14 C-12.63458244 17.07986897 -12.63458244 17.07986897 -12.609375 20.39453125 C-12.64160156 21.59658203 -12.67382812 22.79863281 -12.70703125 24.03710938 C-12.72830078 25.90592773 -12.72830078 25.90592773 -12.75 27.8125 C-12.77964844 29.07771484 -12.80929687 30.34292969 -12.83984375 31.64648438 C-12.91043777 34.76438676 -12.9631891 37.88154575 -13 41 C-15.97 41 -18.94 41 -22 41 C-22 27.8 -22 14.6 -22 1 C-19.36 1 -16.72 1 -14 1 C-13.67 2.32 -13.34 3.64 -13 5 C-12.154375 4.175 -11.30875 3.35 -10.4375 2.5 C-7.03972892 -0.3787798 -4.43607134 -0.44360713 0 0 Z " fill="#9FC736" transform="translate(929,675)"/>
<path d="M0 0 C-0.33 0.66 -0.66 1.32 -1 2 C-3.17578125 2.37890625 -3.17578125 2.37890625 -6.3125 2.5625 C-8.18615234 2.67271484 -8.18615234 2.67271484 -10.09765625 2.78515625 C-17.68554443 3.14055701 -25.27960718 3.38198805 -32.87231445 3.60766602 C-38.8096305 3.79512551 -44.67372141 4.11137964 -50.578125 4.75927734 C-55.00051385 5.1988414 -59.4359981 5.37312545 -63.875 5.5625 C-65.31746094 5.6251001 -65.31746094 5.6251001 -66.7890625 5.68896484 C-86.27140163 6.49524408 -86.27140163 6.49524408 -93 5 C-93 4.34 -93 3.68 -93 3 C-105.54 3 -118.08 3 -131 3 C-131 2.67 -131 2.34 -131 2 C-129.91174927 1.96907761 -129.91174927 1.96907761 -128.80151367 1.93753052 C-120.28644665 1.69463384 -111.77159226 1.4450066 -103.25682449 1.19187927 C-101.00642541 1.12519041 -98.75600679 1.05919422 -96.50558472 0.99328613 C-79.64414486 0.49731331 -62.80436749 -0.09624449 -45.96435547 -1.1060791 C-30.42921016 -2.03695613 -15.49249677 -1.90417811 0 0 Z " fill="#B0D039" transform="translate(801,596)"/>
<path d="M0 0 C2.64 0 5.28 0 8 0 C8 12.87 8 25.74 8 39 C5.36 39 2.72 39 0 39 C0 26.13 0 13.26 0 0 Z " fill="#95C42D" transform="translate(1124,676)"/>
<path d="M0 0 C19.05882328 -0.51279345 37.33416499 2.35542741 56 6 C56 6.66 56 7.32 56 8 C43.36205181 10.63421253 32.7480507 12.03783336 20 9 C20 8.34 20 7.68 20 7 C22.97 7 25.94 7 29 7 C29 6.34 29 5.68 29 5 C27.09927734 4.80083984 27.09927734 4.80083984 25.16015625 4.59765625 C19.89745179 4.01291131 14.67077741 3.23996147 9.4375 2.4375 C8.52419922 2.29892578 7.61089844 2.16035156 6.66992188 2.01757812 C4.44636821 1.6799705 2.22307332 1.3407537 0 1 C0 0.67 0 0.34 0 0 Z " fill="#F1F6FB" transform="translate(1056,585)"/>
<path d="M0 0 C1.9375 1.0625 1.9375 1.0625 3 3 C3.39309578 6.09562931 3.62338668 8.04336605 3 11 C0.9375 13.5625 0.9375 13.5625 -2 15 C-5.46758942 14.94021398 -7.88826749 14.60965977 -10.9375 12.9375 C-12.70141999 9.72094003 -12.73924763 6.50614591 -12 3 C-8.3655827 -1.51548816 -5.40521016 -1.50144727 0 0 Z " fill="#247AC7" transform="translate(416,646)"/>
<path d="M0 0 C0.98484375 0.02707031 1.9696875 0.05414062 2.984375 0.08203125 C3.73203125 0.11683594 4.4796875 0.15164063 5.25 0.1875 C5.5478711 3.11656579 5.75159903 5.33102551 5.25 8.1875 C2.13954335 11.82901023 0.31977471 13.0424458 -4.4375 13.6875 C-7.75 13.1875 -7.75 13.1875 -9.75 12.125 C-11.40405871 8.92026125 -10.65721843 6.57444881 -9.75 3.1875 C-6.64382259 0.06704131 -4.30537848 -0.15376352 0 0 Z " fill="#F4F5EE" transform="translate(1071.75,696.8125)"/>
<path d="M0 0 C2.4375 1.8125 2.4375 1.8125 4 4 C4 5.32 4 6.64 4 8 C-1.94 8 -7.88 8 -14 8 C-13 3 -13 3 -10.375 0.625 C-6.25035144 -1.3609419 -4.35705784 -1.2909801 0 0 Z " fill="#EEF5FB" transform="translate(783,679)"/>
<path d="M0 0 C2 1.25 2 1.25 3 3 C3 4.65 3 6.3 3 8 C-2.94 8 -8.88 8 -15 8 C-11.67900941 -0.30247648 -8.36529545 -2.0238618 0 0 Z " fill="#ECF4FB" transform="translate(505,679)"/>
<path d="M0 0 C5.28 0 10.56 0 16 0 C16 0.33 16 0.66 16 1 C10.31302429 1.91397824 5.68697571 1.91397824 0 1 C0 0.67 0 0.34 0 0 Z M-29 2 C-16.79 2 -4.58 2 8 2 C8 2.33 8 2.66 8 3 C24.335 3.495 24.335 3.495 41 4 C41 4.33 41 4.66 41 5 C-7.56504323 5.41277905 -7.56504323 5.41277905 -29 3 C-29 2.67 -29 2.34 -29 2 Z " fill="#3878AE" transform="translate(1018,597)"/>
<path d="M0 0 C-0.33 1.32 -0.66 2.64 -1 4 C-0.07058594 3.98839844 0.85882812 3.97679687 1.81640625 3.96484375 C14.09490334 3.87521968 14.09490334 3.87521968 20 5 C20 5.33 20 5.66 20 6 C2.5963801 5.56535122 -14.6782482 4.85461584 -32 3 C-32 2.67 -32 2.34 -32 2 C-21.25704615 0.3999856 -10.85859801 -0.25991325 0 0 Z " fill="#2A75B5" transform="translate(811,592)"/>
<path d="M0 0 C1.13628845 0.01071785 1.13628845 0.01071785 2.29553223 0.02165222 C3.47701843 0.02179573 3.47701843 0.02179573 4.68237305 0.02194214 C7.2436846 0.02566845 9.80461294 0.04458013 12.36584473 0.06462097 C14.10754271 0.07145419 15.84924199 0.07796486 17.59094238 0.08415222 C29.24339767 0.14364749 40.86540848 0.41532865 52.49084473 1.25212097 C52.49084473 1.58212097 52.49084473 1.91212097 52.49084473 2.25212097 C46.55084473 2.74712097 46.55084473 2.74712097 40.49084473 3.25212097 C40.98584473 4.24212097 40.98584473 4.24212097 41.49084473 5.25212097 C37.05488956 4.76556858 32.62175574 4.27299798 28.19396973 3.71696472 C16.25415277 2.27432017 4.50875771 2.03687477 -7.50915527 2.25212097 C-4.98796658 -0.26906772 -3.43894621 0.0149876 0 0 Z " fill="#6694BC" transform="translate(1057.5091552734375,583.7478790283203)"/>
<path d="M0 0 C-0.33 1.32 -0.66 2.64 -1 4 C1.64 4 4.28 4 7 4 C7 4.33 7 4.66 7 5 C5.0000797 5.02743793 3.00004523 5.04659055 1 5.0625 C-0.11375 5.07410156 -1.2275 5.08570313 -2.375 5.09765625 C-5.55245549 5.01205669 -8.59656514 4.68384439 -11.7421875 4.25610352 C-16.31034049 3.73793824 -20.90846105 3.62128207 -25.5 3.4375 C-27.01980469 3.37272461 -27.01980469 3.37272461 -28.5703125 3.30664062 C-31.0467679 3.20150808 -33.52330749 3.09936163 -36 3 C-36.33 2.34 -36.66 1.68 -37 1 C-24.65415863 0.32292352 -12.36592489 -0.1574163 0 0 Z " fill="#3381C0" transform="translate(875,587)"/>
<path d="M0 0 C0 0.33 0 0.66 0 1 C-1.98 1.33 -3.96 1.66 -6 2 C-3.56612247 3.21693876 -1.58161154 3.31959896 1.125 3.5625 C2.49011719 3.68818359 2.49011719 3.68818359 3.8828125 3.81640625 C4.58148437 3.87699219 5.28015625 3.93757812 6 4 C6 4.33 6 4.66 6 5 C-6.66970387 5.18451025 -6.66970387 5.18451025 -12 4 C-12 3.34 -12 2.68 -12 2 C-24.54 2 -37.08 2 -50 2 C-50 1.67 -50 1.34 -50 1 C-45.45094217 0.85435578 -40.90179317 0.71213289 -36.35253906 0.57275391 C-34.8127979 0.52513634 -33.27308277 0.47666724 -31.73339844 0.42724609 C-21.15160884 0.08835218 -10.5871748 -0.06490775 0 0 Z " fill="#B9D354" transform="translate(720,597)"/>
<path d="M0 0 C3 0.25 3 0.25 5 2.25 C5.36796448 5.12012296 5.37509409 6.65774618 3.8125 9.125 C2 10.25 2 10.25 -0.5625 10.0625 C-3 9.25 -3 9.25 -5 7.25 C-5.25 4.75 -5.25 4.75 -5 2.25 C-3 0.25 -3 0.25 0 0 Z " fill="#A9CE4A" transform="translate(1128,658.75)"/>
<path d="M0 0 C8.58 0.66 17.16 1.32 26 2 C25.67 2.66 25.34 3.32 25 4 C16.45160815 5.29262416 7.62824449 5.14222381 -1 5 C-0.01 4.34 0.98 3.68 2 3 C1.34 2.67 0.68 2.34 0 2 C0 1.34 0 0.68 0 0 Z " fill="#ABCE51" transform="translate(775,594)"/>
<path d="M0 0 C0.71518799 0.13913818 1.43037598 0.27827637 2.16723633 0.42163086 C2.95420898 0.56407227 3.74118164 0.70651367 4.55200195 0.85327148 C5.35959961 1.02922852 6.16719727 1.20518555 6.99926758 1.38647461 C7.8184668 1.53536133 8.63766602 1.68424805 9.48168945 1.83764648 C15.48695093 2.99915796 15.48695093 2.99915796 17.81176758 5.32397461 C9.56176758 5.32397461 1.31176758 5.32397461 -7.18823242 5.32397461 C-2.18823242 0.32397461 -2.18823242 0.32397461 0 0 Z " fill="#2067A2" transform="translate(1086.188232421875,594.676025390625)"/>
<path d="M0 0 C0 3 0 3 -1.25341797 4.578125 C-1.82721191 5.12984375 -2.40100586 5.6815625 -2.9921875 6.25 C-3.61480469 6.8584375 -4.23742187 7.466875 -4.87890625 8.09375 C-5.86697266 9.03734375 -5.86697266 9.03734375 -6.875 10 C-8.16622902 11.2477619 -9.45537724 12.49768156 -10.7421875 13.75 C-11.3182373 14.30171875 -11.89428711 14.8534375 -12.48779297 15.421875 C-14.21369277 17.13078235 -14.21369277 17.13078235 -16 20 C-16.66 19.67 -17.32 19.34 -18 19 C-4.73684211 2.36842105 -4.73684211 2.36842105 0 0 Z " fill="#2F80CB" transform="translate(492,365)"/>
<path d="M0 0 C-0.33 0.66 -0.66 1.32 -1 2 C-4.42232972 3.14077657 -7.08673217 3.09815117 -10.6875 3.0625 C-12.45673828 3.04896484 -12.45673828 3.04896484 -14.26171875 3.03515625 C-15.16535156 3.02355469 -16.06898438 3.01195312 -17 3 C-12.38199597 -2.17439006 -6.37217231 -1.170399 0 0 Z " fill="#ACCF27" transform="translate(778,596)"/>
<path d="M0 0 C9.40228594 -0.1170409 18.62895894 0.11504503 28 1 C28 1.33 28 1.66 28 2 C18.24442163 2.99849626 9.68075512 2.97533115 0 1 C0 0.67 0 0.34 0 0 Z " fill="#BADAEF" transform="translate(1056,585)"/>
<path d="M0 0 C0.66 0.33 1.32 0.66 2 1 C0.34543837 3.61246572 -0.52852671 4.83498435 -3.5 5.875 C-7.01822557 7.45820151 -7.59776946 9.49442365 -9 13 C-9.68636625 15.23525035 -9.68636625 15.23525035 -10 17 C-10.66 17 -11.32 17 -12 17 C-11.87403812 10.95382995 -9.90514527 8.13604976 -5.88671875 3.69921875 C-3.98406415 1.98564783 -2.39672082 0.89444633 0 0 Z " fill="#A2C743" transform="translate(1152,676)"/>
<path d="M0 0 C0 0.33 0 0.66 0 1 C-1.65 1.33 -3.3 1.66 -5 2 C-0.545 2.99 -0.545 2.99 4 4 C4 4.33 4 4.66 4 5 C-2.86515862 5.26404456 -9.25846717 4.25841946 -16 3 C-11.918638 -1.081362 -5.43630843 -0.09372946 0 0 Z " fill="#E2F0B2" transform="translate(522,592)"/>
<path d="M0 0 C0 0.33 0 0.66 0 1 C-7.09038772 2.50974035 -13.75002578 3.28307925 -21 3 C-21 2.67 -21 2.34 -21 2 C-19.35 1.67 -17.7 1.34 -16 1 C-16 0.67 -16 0.34 -16 0 C-10.42289352 -1.06795656 -5.60563042 -0.82622671 0 0 Z " fill="#D6E7F3" transform="translate(1044,594)"/>
<path d="M0 0 C0 0.66 0 1.32 0 2 C-4.455 2.495 -4.455 2.495 -9 3 C-9 2.34 -9 1.68 -9 1 C-12.96 1 -16.92 1 -21 1 C-21 0.67 -21 0.34 -21 0 C-13.81949816 -0.71148265 -7.12971149 -1.25818438 0 0 Z " fill="#0B63AA" transform="translate(883,588)"/>
<path d="M0 0 C1.5159375 -0.02126953 1.5159375 -0.02126953 3.0625 -0.04296875 C6.0885919 0.19445069 8.26227757 0.91425777 11 2.1875 C11 2.5175 11 2.8475 11 3.1875 C3.74 2.8575 -3.52 2.5275 -11 2.1875 C-11 1.8575 -11 1.5275 -11 1.1875 C-7.28556654 0.33399966 -3.80938062 0.02429452 0 0 Z " fill="#3679A0" transform="translate(790,592.8125)"/>
<path d="M0 0 C0 3 0 3 -1.6796875 5.04296875 C-2.76636719 6.10451172 -2.76636719 6.10451172 -3.875 7.1875 C-4.59429687 7.90292969 -5.31359375 8.61835938 -6.0546875 9.35546875 C-8 11 -8 11 -10 11 C-10.66 12.32 -11.32 13.64 -12 15 C-12.66 15 -13.32 15 -14 15 C-12.40153531 10.75091664 -9.1869608 8.17774261 -5.875 5.25 C-5.31167969 4.74339844 -4.74835938 4.23679687 -4.16796875 3.71484375 C-2.78348469 2.47115468 -1.39238512 1.23483695 0 0 Z " fill="#3481CA" transform="translate(424,341)"/>
<path d="M0 0 C4.95 0 9.9 0 15 0 C15 0.33 15 0.66 15 1 C13.35 1 11.7 1 10 1 C10 1.66 10 2.32 10 3 C8.5199159 2.88637738 7.04089926 2.75877092 5.5625 2.625 C4.73878906 2.55539062 3.91507813 2.48578125 3.06640625 2.4140625 C2.38449219 2.27742187 1.70257812 2.14078125 1 2 C0.67 1.34 0.34 0.68 0 0 Z " fill="#D7E8F3" transform="translate(1075,587)"/>
<path d="M0 0 C4.62 0 9.24 0 14 0 C14.33 0.99 14.66 1.98 15 3 C15.66 3.33 16.32 3.66 17 4 C14 4 14 4 11 2 C8.78270283 1.7215372 8.78270283 1.7215372 6.4375 1.8125 C5.65246094 1.81894531 4.86742187 1.82539062 4.05859375 1.83203125 C1.93645328 1.87635911 1.93645328 1.87635911 0 3 C0 2.01 0 1.02 0 0 Z " fill="#ADC957" transform="translate(1153,681)"/>
<path d="M0 0 C0 0.33 0 0.66 0 1 C-0.84304688 1.13277344 -1.68609375 1.26554688 -2.5546875 1.40234375 C-3.65039062 1.57894531 -4.74609375 1.75554688 -5.875 1.9375 C-6.96554687 2.11152344 -8.05609375 2.28554688 -9.1796875 2.46484375 C-11.93821546 2.85551159 -11.93821546 2.85551159 -14 4 C-15.67654729 3.72057545 -17.34608154 3.39171753 -19 3 C-13.04703442 -0.43440322 -6.66321844 -0.13326437 0 0 Z " fill="#B1D060" transform="translate(422,589)"/>
<path d="M0 0 C0.66 0.33 1.32 0.66 2 1 C2.36517527 7.57315478 1.13619737 12.79485526 -1 19 C-2.45839897 15.04294544 -1.67906093 11.30168612 -1.0625 7.25 C-0.96259766 6.55261719 -0.86269531 5.85523438 -0.75976562 5.13671875 C-0.51334127 3.42348274 -0.25759045 1.71159275 0 0 Z " fill="#91C244" transform="translate(802,459)"/>
<path d="M0 0 C3.96 0 7.92 0 12 0 C11.67 0.99 11.34 1.98 11 3 C9.35333797 2.8864371 7.70763918 2.75882619 6.0625 2.625 C5.14597656 2.55539062 4.22945312 2.48578125 3.28515625 2.4140625 C2.15400391 2.20910156 2.15400391 2.20910156 1 2 C0.67 1.34 0.34 0.68 0 0 Z " fill="#2473BE" transform="translate(795,592)"/>
<path d="M0 0 C2.64 0.33 5.28 0.66 8 1 C8 1.66 8 2.32 8 3 C4.7 3.33 1.4 3.66 -2 4 C-1.34 3.67 -0.68 3.34 0 3 C0 2.01 0 1.02 0 0 Z " fill="#D3E4F3" transform="translate(1104,590)"/>
<path d="M0 0 C1.45922693 0.11409593 2.91740598 0.24165544 4.375 0.375 C5.59316406 0.47941406 5.59316406 0.47941406 6.8359375 0.5859375 C9 1 9 1 11 3 C7.7 3 4.4 3 1 3 C0.67 2.01 0.34 1.02 0 0 Z " fill="#447CAF" transform="translate(1093,597)"/>
<path d="M0 0 C1.65 0 3.3 0 5 0 C5 0.66 5 1.32 5 2 C7.64 2 10.28 2 13 2 C13 2.33 13 2.66 13 3 C8.71 3 4.42 3 0 3 C0 2.01 0 1.02 0 0 Z " fill="#2977B4" transform="translate(869,589)"/>
<path d="M0 0 C0 3 0 3 -1.375 4.5 C-1.91125 4.995 -2.4475 5.49 -3 6 C-3.99 7.485 -3.99 7.485 -5 9 C-5.66 8.67 -6.32 8.34 -7 8 C-5.50902342 4.2047869 -3.24299151 2.38957269 0 0 Z " fill="#BFD945" transform="translate(862,366)"/>
<path d="M0 0 C2.64 0 5.28 0 8 0 C8 0.99 8 1.98 8 3 C5.36 2.67 2.72 2.34 0 2 C0 1.34 0 0.68 0 0 Z " fill="#BAD8EA" transform="translate(1076,592)"/>
<path d="M0 0 C2.31 0 4.62 0 7 0 C5.8125 1.5 5.8125 1.5 4 3 C1.3125 3.1875 1.3125 3.1875 -1 3 C-0.67 2.01 -0.34 1.02 0 0 Z " fill="#267DA3" transform="translate(843,592)"/>
<path d="M0 0 C0.99 0.33 1.98 0.66 3 1 C-1.296875 5.00390625 -1.296875 5.00390625 -3 6 C-5.203125 5.65234375 -5.203125 5.65234375 -7 5 C-5.90554162 4.13342884 -4.79902219 3.28207276 -3.6875 2.4375 C-3.07261719 1.96183594 -2.45773437 1.48617188 -1.82421875 0.99609375 C-1.22222656 0.66738281 -0.62023437 0.33867187 0 0 Z " fill="#3883CA" transform="translate(667,461)"/>
<path d="M0 0 C0.33 1.32 0.66 2.64 1 4 C-0.65 5.32 -2.3 6.64 -4 8 C-4.66 7.34 -5.32 6.68 -6 6 C-5.38125 5.938125 -4.7625 5.87625 -4.125 5.8125 C-1.72238859 5.171081 -1.72238859 5.171081 -0.75 2.4375 C-0.5025 1.633125 -0.255 0.82875 0 0 Z " fill="#AAC952" transform="translate(1010,703)"/>
</svg>